# xmcd
# 
# Track frame offsets:
#     187
#     23152
#     43787
#     69842
#     88957
#     113252
#     139747
#     162352
#     179877
#     202027
#     225457
#     245960
# 
# Disc length: 3603
# 
# Revision: 0
# Processed by: cddbd v1.5.2PL0 Copyright (c) Steve Scherf et al.
# Submitted via: fre:ac v1.0.31
# 
DISCID=a80e110c
DTITLE=Various Artist - Người Em Sầu Mộng - Ngọc Lan - Vũ Khanh - Diễm Xưa Productions
DYEAR=1992
DGENRE=Pop
TTITLE0=Ngọc Lan - Vũ Khanh - Hoa Rụng Ven Sông - Phạm Duy
TTITLE1=Vũ Khanh - Người Em Sầu Mộng - Y Vân - Thơ Lưu Trọng Lư
TTITLE2=Ngọc Lan - Một Tình Yêu - Đức Huy
TTITLE3=Vũ Khanh - Tưởng Niệm - Trầm Tử Thiêng
TTITLE4=Ngọc Lan - Vũ Khanh - Chiều Phi Trường - Lê Uyên Phương
TTITLE5=Ngọc Lan - Anh Đã Thấy Mùa Xuân Chưa - Quốc Dũng
TTITLE6=Vũ Khanh - Tâm Sự Gửi Về Đâu - Phạm Duy
TTITLE7=Ngọc Lan - Vũ Khanh - Bài Ca Hạnh Ngộ - Lê Uyên Phương
TTITLE8=Ngọc Lan - Xin Một Ngày Mai Có Nhau - Đức Huy
TTITLE9=Vu Khanh, Ngoc Lan - Đàn Trong Đêm Vắng - Lv Văn Phụng
TTITLE10=Ngọc Lan - Vũ Khanh - Con Quỳ Lạy Chúa - Phạm Duy - Lê Dinh
TTITLE11=Ngọc Lan - Nỗi Niềm - Tuấn Khanh
EXTD=
EXTT0=
EXTT1=
EXTT2=
EXTT3=
EXTT4=
EXTT5=
EXTT6=
EXTT7=
EXTT8=
EXTT9=
EXTT10=
EXTT11=
PLAYORDER=
